<?xml version="1.0" standalone="no"?>
<!DOCTYPE svg PUBLIC "-//W3C//DTD SVG 20010904//EN"
 "http://www.w3.org/TR/2001/REC-SVG-20010904/DTD/svg10.dtd">
<svg version="1.0" xmlns="http://www.w3.org/2000/svg"
 width="1000.000000pt" height="1000.000000pt" viewBox="0 0 1000.000000 1000.000000"
 preserveAspectRatio="xMidYMid meet">
<metadata>
Created by potrace 1.14, written by Peter Selinger 2001-2017
</metadata>
<g transform="translate(0.000000,1000.000000) scale(0.100000,-0.100000)"
fill="#000000" stroke="none">
<path d="M4748 9995 c-2 -1 -56 -6 -120 -9 -65 -4 -128 -9 -140 -11 -13 -2
-48 -6 -78 -9 -30 -4 -66 -8 -79 -11 -14 -2 -45 -7 -70 -10 -25 -3 -56 -7 -67
-9 -12 -3 -38 -7 -58 -10 -19 -3 -55 -10 -78 -15 -24 -6 -56 -12 -73 -15 -16
-3 -43 -8 -60 -11 -33 -7 -148 -35 -235 -58 -194 -52 -514 -165 -677 -238 -24
-10 -64 -28 -90 -40 -118 -52 -338 -168 -475 -250 -1024 -613 -1779 -1538
-2172 -2660 -82 -236 -180 -620 -212 -834 -4 -27 -8 -54 -9 -60 -3 -14 -14
-100 -21 -165 -3 -30 -7 -66 -10 -80 -25 -161 -25 -804 1 -1005 3 -22 12 -96
20 -165 9 -69 22 -156 30 -195 8 -38 17 -86 20 -105 13 -74 47 -221 85 -361
139 -511 391 -1055 697 -1499 56 -81 152 -211 198 -269 664 -826 1523 -1406
2515 -1698 144 -42 453 -115 545 -128 22 -3 47 -8 55 -10 8 -2 40 -7 70 -10
30 -3 62 -8 70 -10 8 -2 50 -7 93 -10 43 -4 88 -8 100 -11 130 -25 734 -25
962 1 22 3 65 7 95 10 114 12 147 17 235 31 50 9 120 22 157 30 37 7 82 16
100 19 58 10 229 55 368 97 1304 388 2418 1325 3027 2546 118 235 174 368 266
627 42 118 115 372 132 460 3 11 11 49 19 85 31 137 67 348 81 480 3 30 8 69
10 85 27 192 27 786 0 1007 -2 18 -6 60 -10 92 -3 32 -7 62 -9 65 -2 3 -7 35
-10 71 -4 36 -9 72 -11 80 -2 8 -6 31 -9 50 -8 53 -23 125 -46 230 -12 52 -23
102 -25 110 -2 8 -10 40 -18 70 -370 1392 -1320 2563 -2597 3199 -202 100
-245 119 -435 194 -188 74 -529 180 -655 203 -13 3 -60 13 -105 23 -78 18
-139 31 -180 37 -11 1 -65 9 -120 18 -119 18 -172 25 -245 31 -30 3 -82 8
-115 11 -59 6 -631 14 -637 9z"/>
</g>
</svg>
